<?xml version="1.0" encoding="iso-8859-1"?>
<!-- Generator: Adobe Illustrator 19.0.0, SVG Export Plug-In . SVG Version: 6.00 Build 0)  -->
<svg version="1.1" id="Layer_1" xmlns="http://www.w3.org/2000/svg" xmlns:xlink="http://www.w3.org/1999/xlink" x="0px" y="0px"
	 viewBox="0 0 512 512" style="enable-background:new 0 0 512 512;" xml:space="preserve">
<path style="fill:#1DA49C;" d="M289.269,62.225c4.253-6.356,6.737-13.996,6.737-22.219C296.006,17.912,278.095,0,256,0
	s-40.007,17.912-40.007,40.007c0,8.222,2.483,15.863,6.737,22.219c10.721-6.199,21.852-9.658,33.27-9.658
	C267.416,52.569,278.547,56.027,289.269,62.225z"/>
<path style="fill:#1A948D;" d="M256,0v52.569c11.417,0,22.547,3.458,33.27,9.658c4.253-6.356,6.737-13.996,6.737-22.219
	C296.006,17.912,278.095,0,256,0z"/>
<path style="fill:#23B898;" d="M256,512c-96.624,0-175.235-78.611-175.235-175.235c0-48.553,19.127-121.893,47.594-182.499
	c16.157-34.398,34.002-62.104,53.04-82.348C205.233,46.575,230.332,33.725,256,33.725s50.767,12.849,74.601,38.194
	c19.037,20.243,36.883,47.948,53.04,82.348c28.468,60.607,47.594,133.946,47.594,182.499C431.233,433.391,352.624,512,256,512z"/>
<path style="fill:#FFDA79;" d="M256,428.497c-50.58,0-91.73-41.15-91.73-91.73s41.15-91.73,91.73-91.73s91.73,41.15,91.73,91.73
	S306.58,428.497,256,428.497z"/>
<path style="fill:#1DA49C;" d="M383.64,154.266c-16.157-34.398-34.002-62.104-53.04-82.348
	C306.767,46.575,281.668,33.725,256,33.725V512c96.624,0,175.235-78.611,175.235-175.235
	C431.233,288.213,412.108,214.873,383.64,154.266z"/>
<path style="fill:#FFC72D;" d="M256,245.035v183.461c50.58,0,91.73-41.15,91.73-91.73S306.58,245.035,256,245.035z"/>
<g>
</g>
<g>
</g>
<g>
</g>
<g>
</g>
<g>
</g>
<g>
</g>
<g>
</g>
<g>
</g>
<g>
</g>
<g>
</g>
<g>
</g>
<g>
</g>
<g>
</g>
<g>
</g>
<g>
</g>
</svg>
